<svg fill="none" height="32" viewBox="0 0 32 32" width="32" xmlns="http://www.w3.org/2000/svg"><path d="m15 4.06c0 .42938.2743.79171.6563.92999h-.1563c-.28 0-.5.23-.5.5 0 .28.23.51001.5.51001h-1.51c-.54 0-.99.45002-.99 1h-.37c-.27 0-.49.22-.49.49v.02c0 .27.22.49.49.49h.37v1c-2.21 0-4 1.79-4 4v2h-1.5c-.27614 0-.5.2239-.5.5s.22386.5.5.5h.5v2h-2.5c-.27614 0-.5.2239-.5.5s.22386.5.5.5h.5v2h-1.5c-.27614 0-.5.2239-.5.5s.22386.5.5.5h.5v2h-1.5c-.27614 0-.5.2239-.5.5s.22386.5.5.5h.5v2h-1.5c-.27614 0-.5.2239-.5.5s.22386.5.5.5h.5v2h26v-2h.5c.2761 0 .5-.2239.5-.5s-.2239-.5-.5-.5h-1.5v-2h.5c.2761 0 .5-.2239.5-.5s-.2239-.5-.5-.5h-1.5v-2h.5c.2761 0 .5-.2239.5-.5s-.2239-.5-.5-.5h-1.5v-2h.5c.2761 0 .5-.2239.5-.5s-.2239-.5-.5-.5h-2.5v-2h.5c.2761 0 .5-.2239.5-.5s-.2239-.5-.5-.5h-1.5v-2c0-2.21-1.79-4-4-4v-1h.45c.27 0 .49-.23.49-.5v-.01c0-.27-.22-.49-.49-.49h-.45c0-.54998-.44-1.01-1-1h-1.49c.27 0 .49-.23001.5-.51001 0-.28-.23-.5-.5-.5h-.1619c.3839-.13798.6519-.49853.6519-.91999v-.04c0-.54-.45-2.03-1-2.03s-1 1.49-1 2.03zm2.98 25.9301v-4.1001c0-.49-.4-.89-.89-.89h-2.2c-.49 0-.89.4-.89.89v4.1001h-2v-5.9901h-1.42c-.44 0-.72004-.44-.53-.81l.48-.89c.1-.18.31-.3.53-.3h9.85c.23 0 .43.11.53.3l.48.89c.2.37-.09.81-.53.81h-1.38v5.9901zm2.42-8.9901h-8.8c-.44 0-.72-.44-.53-.81l.48-.89c.1-.19.31-.31.53-.31h7.84c.23 0 .43.12.53.31l.48.89c.2.37-.09.81-.53.81zm-7.8-3c-.44 0-.73-.44-.53-.81l.48-.88c.1-.18.31-.3.53-.3h.92c.0055-.5555.4633-1.01 1.02-1.01h.98.97c.5666 0 1.0146.4545 1.02 1.01h.94c.23 0 .43.11.53.3l.48.88c.2.37-.09.81-.53.81zm3.4-3c-.2761 0-.5-.2239-.5-.5s.2239-.5.5-.5.5.2239.5.5-.2239.5-.5.5zm8 13h4v1h-4zm0-3h3v1h-3zm0-3h2v1h-2zm0-2v-1h1v1zm-20 8h4v1h-4zm1-3h3v1h-3zm1-2v-1h2v1zm1-4h1v1h-1z" fill="#212121"/></svg>